<svg width="88" height="88" viewBox="0 0 88 88" fill="none" xmlns="http://www.w3.org/2000/svg">
<g filter="url(#filter0_d_36_1215)">
<circle cx="44" cy="40" r="30" fill="#052078"/>
</g>
<g clip-path="url(#clip0_36_1215)">
<path fill-rule="evenodd" clip-rule="evenodd" d="M31 35.3082C31 36.8721 31 37.3934 31.5213 38.4361C31.5213 38.9574 31.5213 39.4787 32.0426 39.4787C32.0426 40 32.0426 40 32.0426 40H38.2984L38.8197 38.4361C39.341 38.4361 39.341 37.9147 39.8624 37.9147C40.3837 37.9147 40.3837 38.4361 40.3837 38.4361L41.9476 40.5213V41.0426C41.9476 41.0426 42.4689 41.0426 42.4689 41.564C42.4689 41.564 42.4689 41.564 42.4689 42.0853C42.4689 41.564 44.0329 38.9574 44.0329 38.4361C44.5542 37.9147 44.5542 37.9147 44.5542 37.3934L45.5968 35.3082C46.1181 34.7869 46.6394 34.2655 47.1608 35.3082L48.2034 37.3934C48.2034 37.3934 48.2034 37.3934 48.7247 37.9147V38.4361C49.246 38.4361 49.246 38.9574 49.246 38.9574C49.246 38.9574 49.246 38.9574 49.246 39.4787L49.7673 40H56.5444C57.0657 38.9574 57.5871 37.3934 57.5871 36.3508V35.8295C57.5871 34.7869 57.5871 33.7442 57.0657 32.7016L56.5444 31.1377C54.9805 29.5737 52.8952 28.0098 50.2887 28.0098C48.2034 28.0098 47.6821 28.0098 46.1181 29.0524C45.5968 29.0524 45.0755 29.5737 45.0755 29.5737L44.5542 30.095C44.0329 30.095 44.0329 30.095 44.0329 29.5737C43.5116 29.5737 42.9902 29.0524 41.9476 28.5311C40.3837 28.0098 38.2984 28.0098 36.2132 28.5311C33.6066 29.5737 31 32.7016 31 35.3082Z" fill="white"/>
<path fill-rule="evenodd" clip-rule="evenodd" d="M39.8623 40.5213C39.8623 40.5213 39.341 41.564 38.8197 41.564C38.8197 42.0853 37.7771 41.564 37.2558 41.564C36.2131 41.564 34.6492 41.564 33.6066 41.564C33.6066 42.0853 40.3837 48.341 41.4263 49.905L43.5116 51.4689C44.0329 51.9903 44.0329 51.9903 44.5542 51.9903C45.0755 51.9903 45.5968 51.4689 46.1181 50.9476L51.3313 45.7345C51.8526 45.2132 54.9805 42.0853 54.9805 41.564H50.2886C49.7673 41.564 49.246 41.564 48.7247 41.564C48.7247 41.0426 48.2034 40.5213 48.2034 40C47.6821 39.4787 46.6394 37.3934 46.6394 37.3934L46.1181 37.9147C46.1181 38.4361 46.1181 38.4361 45.5968 38.9574V39.4787C45.0755 40 45.0755 40 45.0755 40L44.0329 42.6066C44.0329 42.6066 44.0329 43.1279 43.5116 43.1279C43.5116 43.6492 43.5116 44.1705 42.4689 44.1705C41.9476 44.1705 41.9476 43.6492 41.4263 43.1279L40.905 41.564C40.3837 41.564 39.8623 40.5213 39.8623 40.5213Z" fill="white"/>
</g>
<defs>
<filter id="filter0_d_36_1215" x="0" y="0" width="88" height="88" filterUnits="userSpaceOnUse" color-interpolation-filters="sRGB">
<feFlood flood-opacity="0" result="BackgroundImageFix"/>
<feColorMatrix in="SourceAlpha" type="matrix" values="0 0 0 0 0 0 0 0 0 0 0 0 0 0 0 0 0 0 127 0" result="hardAlpha"/>
<feMorphology radius="4" operator="dilate" in="SourceAlpha" result="effect1_dropShadow_36_1215"/>
<feOffset dy="4"/>
<feGaussianBlur stdDeviation="5"/>
<feComposite in2="hardAlpha" operator="out"/>
<feColorMatrix type="matrix" values="0 0 0 0 0.0196078 0 0 0 0 0.12549 0 0 0 0 0.470588 0 0 0 0.3 0"/>
<feBlend mode="normal" in2="BackgroundImageFix" result="effect1_dropShadow_36_1215"/>
<feBlend mode="normal" in="SourceGraphic" in2="effect1_dropShadow_36_1215" result="shape"/>
</filter>
<clipPath id="clip0_36_1215">
<rect width="26.5871" height="24" fill="white" transform="translate(31 28)"/>
</clipPath>
</defs>
</svg>
