<svg width="88" height="88" viewBox="0 0 88 88" fill="none" xmlns="http://www.w3.org/2000/svg">
<g filter="url(#filter0_d_36_1221)">
<circle cx="44" cy="40" r="30" fill="#254B8E"/>
</g>
<path d="M54.6666 39.1867C54.9144 39.0021 55.0982 38.7446 55.1923 38.4503C55.2863 38.156 55.2859 37.8396 55.191 37.5456C55.0962 37.2515 54.9117 36.9945 54.6635 36.8106C54.4152 36.6267 54.1156 36.5251 53.8066 36.52L47.8066 36.2934C47.7771 36.2913 47.7489 36.2808 47.7252 36.263C47.7016 36.2453 47.6835 36.2211 47.6733 36.1934L45.6 30.5934C45.4958 30.3084 45.3066 30.0624 45.058 29.8886C44.8094 29.7148 44.5133 29.6216 44.21 29.6216C43.9066 29.6216 43.6106 29.7148 43.362 29.8886C43.1134 30.0624 42.9242 30.3084 42.82 30.5934L40.7533 36.2134C40.7431 36.2411 40.7251 36.2653 40.7014 36.283C40.6778 36.3008 40.6495 36.3113 40.62 36.3134L34.62 36.54C34.3111 36.5451 34.0115 36.6467 33.7632 36.8306C33.5149 37.0145 33.3304 37.2715 33.2356 37.5656C33.1408 37.8596 33.1403 38.176 33.2344 38.4703C33.3284 38.7646 33.5122 39.0221 33.76 39.2067L38.4667 42.9067C38.4902 42.9252 38.5078 42.9503 38.5173 42.9787C38.5268 43.0071 38.5277 43.0377 38.52 43.0667L36.9 48.8067C36.816 49.099 36.8242 49.41 36.9233 49.6976C37.0224 49.9851 37.2077 50.2351 37.4539 50.4135C37.7001 50.592 37.9953 50.6903 38.2994 50.6951C38.6035 50.6998 38.9016 50.6107 39.1533 50.44L44.1267 47.1067C44.1511 47.0898 44.1802 47.0807 44.21 47.0807C44.2398 47.0807 44.2688 47.0898 44.2933 47.1067L49.2666 50.44C49.5149 50.6166 49.812 50.7114 50.1166 50.7114C50.4213 50.7114 50.7184 50.6166 50.9666 50.44C51.2129 50.2632 51.3984 50.0144 51.4975 49.7279C51.5966 49.4414 51.6044 49.1312 51.52 48.84L49.8866 43.08C49.878 43.0511 49.8785 43.0202 49.888 42.9916C49.8976 42.963 49.9157 42.938 49.94 42.92L54.6666 39.1867Z" fill="white"/>
<defs>
<filter id="filter0_d_36_1221" x="0" y="0" width="88" height="88" filterUnits="userSpaceOnUse" color-interpolation-filters="sRGB">
<feFlood flood-opacity="0" result="BackgroundImageFix"/>
<feColorMatrix in="SourceAlpha" type="matrix" values="0 0 0 0 0 0 0 0 0 0 0 0 0 0 0 0 0 0 127 0" result="hardAlpha"/>
<feMorphology radius="4" operator="dilate" in="SourceAlpha" result="effect1_dropShadow_36_1221"/>
<feOffset dy="4"/>
<feGaussianBlur stdDeviation="5"/>
<feComposite in2="hardAlpha" operator="out"/>
<feColorMatrix type="matrix" values="0 0 0 0 0.0407292 0 0 0 0 0.194905 0 0 0 0 0.479167 0 0 0 0.3 0"/>
<feBlend mode="normal" in2="BackgroundImageFix" result="effect1_dropShadow_36_1221"/>
<feBlend mode="normal" in="SourceGraphic" in2="effect1_dropShadow_36_1221" result="shape"/>
</filter>
</defs>
</svg>
