<svg width="88" height="88" viewBox="0 0 88 88" fill="none" xmlns="http://www.w3.org/2000/svg">
<g filter="url(#filter0_d_36_1219)">
<circle cx="44" cy="40" r="30" fill="#00B2CA"/>
</g>
<path fill-rule="evenodd" clip-rule="evenodd" d="M30 35.3846C30 36.4923 30.7426 36.8615 31.4852 37.6C31.8564 37.9692 32.2277 38.3385 32.2277 38.7077C32.599 39.0769 32.599 39.4462 32.9703 39.8154C32.9703 39.8154 32.9703 39.8154 33.3416 39.4462C34.4555 38.3385 36.6832 38.7077 37.4258 40.1846C37.4258 40.1846 37.7971 40.5538 37.7971 40.9231C39.6535 39.8154 41.8813 41.2923 41.8813 43.1385C41.8813 43.8769 41.8813 43.8769 41.51 44.6154C42.6239 44.9846 43.3664 46.0923 43.3664 47.2C45.5942 47.2 45.9655 48.6769 47.0793 49.4154C47.4506 49.7846 48.1932 49.7846 48.5645 49.4154C49.3071 48.3077 48.1932 47.2 47.4506 46.4615C47.0793 46.0923 46.3368 45.3538 46.3368 44.9846C46.3368 44.6154 46.708 44.2462 47.0793 44.2462C47.4506 44.2462 48.1932 45.3538 48.5645 45.7231C48.9358 45.7231 49.3071 46.0923 49.3071 46.4615C50.4209 47.2 51.5348 46.4615 51.5348 45.3538C51.5348 44.6154 48.9358 43.1385 48.9358 42.4C48.9358 41.6615 49.3071 41.2923 50.0497 41.2923C50.4209 41.2923 51.1635 42.4 51.5348 42.7692C51.9061 43.5077 52.6487 43.8769 53.3913 43.8769C53.7626 43.8769 54.5051 43.5077 54.5051 42.7692C54.5051 42.0308 53.7626 41.2923 53.3913 41.2923C52.6487 40.5538 49.3071 37.2308 49.3071 37.2308C48.1932 37.6 47.8219 37.6 46.708 37.6C45.9655 37.6 44.8516 37.2308 44.4803 36.8615C43.7377 36.1231 43.7377 36.1231 42.9951 36.8615C42.6239 36.8615 42.2526 37.2308 42.2526 37.2308C39.6535 38.7077 36.6832 36.8615 36.6832 35.0154C36.6832 33.5385 37.0545 33.5385 38.1684 32.4308L40.0248 30.2154C40.0248 29.8462 39.2822 29.4769 38.911 29.1077C38.5397 28.7385 38.1684 28 37.4258 28C37.0545 28 36.6832 28.7385 36.3119 28.7385L30.7426 34.2769C30.7426 34.6462 30 35.0154 30 35.3846Z" fill="white"/>
<path fill-rule="evenodd" clip-rule="evenodd" d="M38.1684 35.0154C38.1684 35.7538 39.6535 36.4923 40.7674 36.1231C41.51 35.7538 41.8813 35.3846 42.2526 35.0154C42.9951 34.6462 42.9951 34.6462 43.7377 34.6462C44.8516 34.6462 45.5942 35.7538 47.0793 35.7538C47.4506 35.7538 48.1932 35.7538 48.1932 35.7538C48.9358 35.3846 48.9358 35.0154 49.3071 35.0154L54.8764 40.5538C54.8764 40.1846 54.8764 40.1846 54.8764 39.8154C54.8764 39.8154 54.8764 39.4462 54.8764 39.0769C54.8764 37.6 57.4755 36.4923 57.4755 35.3846C57.4755 35.0154 56.7329 34.6462 56.7329 34.2769L50.7922 28.7385C50.4209 28.3692 50.4209 28 49.6784 28C48.9358 28 47.8219 29.4769 47.0793 30.2154C46.3368 30.5846 43.7377 30.2154 42.9951 30.5846C41.8813 30.5846 41.1387 31.6923 40.3961 32.4308L38.5397 34.2769C38.5397 34.2769 38.1684 34.6462 38.1684 35.0154Z" fill="white"/>
<path fill-rule="evenodd" clip-rule="evenodd" d="M40.3961 43.1385C40.3961 42.7692 39.6535 42.0308 39.2822 42.0308C38.5397 42.0308 38.1684 42.7692 37.7971 43.1385C37.4258 43.5077 35.5694 44.9846 35.1981 45.3538C34.4555 46.4615 35.9406 47.9385 37.0545 47.2C37.4258 46.8308 38.911 44.9846 39.2822 44.6154C39.6535 44.2461 40.3961 43.8769 40.3961 43.1385Z" fill="white"/>
<path fill-rule="evenodd" clip-rule="evenodd" d="M36.3119 41.6615C36.3119 40.9231 35.5693 40.5538 35.1981 40.5538C34.4555 40.5538 34.4555 40.5538 34.0842 40.9231C33.7129 41.2923 32.599 42.4 32.2277 42.7692C31.8565 43.8769 32.9703 44.6154 33.7129 44.6154C34.0842 44.2461 35.9406 42.7692 35.9406 42.4C36.3119 42.0308 36.3119 41.6615 36.3119 41.6615Z" fill="white"/>
<path fill-rule="evenodd" clip-rule="evenodd" d="M41.8813 47.2C41.8813 46.4616 40.7674 45.7231 40.0248 46.0924C40.0248 46.4616 39.6535 46.4616 39.6535 46.8308C39.2822 47.2 38.1684 47.9385 37.7971 48.3077C37.4258 49.4154 38.5397 50.5231 39.6535 50.1539C40.0248 49.7847 41.51 48.3077 41.8813 47.9385C41.8813 47.9385 41.8813 47.5693 41.8813 47.2Z" fill="white"/>
<path fill-rule="evenodd" clip-rule="evenodd" d="M41.8813 50.523C41.8813 51.2615 42.2526 52 42.9951 52C43.7377 52 43.7377 51.6307 44.109 51.2615C44.8516 50.523 45.2229 49.7846 44.4803 49.0461C43.3664 47.9384 41.8813 49.7846 41.8813 50.523Z" fill="white"/>
<defs>
<filter id="filter0_d_36_1219" x="0" y="0" width="88" height="88" filterUnits="userSpaceOnUse" color-interpolation-filters="sRGB">
<feFlood flood-opacity="0" result="BackgroundImageFix"/>
<feColorMatrix in="SourceAlpha" type="matrix" values="0 0 0 0 0 0 0 0 0 0 0 0 0 0 0 0 0 0 127 0" result="hardAlpha"/>
<feMorphology radius="4" operator="dilate" in="SourceAlpha" result="effect1_dropShadow_36_1219"/>
<feOffset dy="4"/>
<feGaussianBlur stdDeviation="5"/>
<feComposite in2="hardAlpha" operator="out"/>
<feColorMatrix type="matrix" values="0 0 0 0 0 0 0 0 0 0.698039 0 0 0 0 0.792157 0 0 0 0.3 0"/>
<feBlend mode="normal" in2="BackgroundImageFix" result="effect1_dropShadow_36_1219"/>
<feBlend mode="normal" in="SourceGraphic" in2="effect1_dropShadow_36_1219" result="shape"/>
</filter>
</defs>
</svg>
