<svg width="23" height="23" viewBox="0 0 23 23" fill="none" xmlns="http://www.w3.org/2000/svg">
<path d="M6.55954 11.6019C7.59683 13.7226 9.31583 15.4338 11.4412 16.4614C11.5967 16.5351 11.7687 16.567 11.9403 16.554C12.1119 16.541 12.2771 16.4836 12.4198 16.3874L15.5492 14.3006C15.6877 14.2083 15.8469 14.152 16.0126 14.1368C16.1782 14.1215 16.3451 14.1479 16.498 14.2134L22.3526 16.7225C22.5515 16.807 22.7175 16.9538 22.8257 17.1409C22.9339 17.328 22.9783 17.5451 22.9524 17.7596C22.7673 19.2076 22.0608 20.5385 20.9652 21.5031C19.8695 22.4678 18.4598 22.9999 17 23C12.4913 23 8.1673 21.2089 4.97919 18.0208C1.79107 14.8327 0 10.5087 0 6C7.67606e-05 4.54022 0.532242 3.13052 1.49685 2.03485C2.46146 0.939176 3.79237 0.232674 5.24037 0.0476255C5.45489 0.0216654 5.67204 0.0661239 5.85909 0.174303C6.04614 0.282482 6.19298 0.448522 6.27746 0.647404L8.78877 6.50714C8.85373 6.6587 8.8802 6.82398 8.86582 6.98826C8.85144 7.15253 8.79666 7.31069 8.70636 7.44867L6.62681 10.6261C6.53216 10.7691 6.47621 10.9341 6.46442 11.1051C6.45263 11.2762 6.4854 11.4473 6.55954 11.6019V11.6019Z" fill="white"/>
</svg>
